<?xml version="1.0" encoding="UTF-8"?>
<svg version="1.1" xmlns="http://www.w3.org/2000/svg" width="640" height="640">
<path d="M0 0 C211.2 0 422.4 0 640 0 C640 211.2 640 422.4 640 640 C428.8 640 217.6 640 0 640 C0 428.8 0 217.6 0 0 Z " fill="#FEFEFE" transform="translate(0,0)"/>
<path d="M0 0 C91.08 0 182.16 0 276 0 C276 64.68 276 129.36 276 196 C207.36 196 138.72 196 68 196 C68 251.44 68 306.88 68 364 C45.56 364 23.12 364 0 364 C0 243.88 0 123.76 0 0 Z " fill="#64000F" transform="translate(182,138)"/>
<path d="M0 0 C46.2 0 92.4 0 140 0 C140 21.78 140 43.56 140 66 C93.8 66 47.6 66 0 66 C0 44.22 0 22.44 0 0 Z " fill="#FEFEFE" transform="translate(250,203)"/>
<path d="M0 0 C0.99 0 1.98 0 3 0 C3 64.68 3 129.36 3 196 C-65.64 196 -134.28 196 -205 196 C-205 251.44 -205 306.88 -205 364 C-227.44 364 -249.88 364 -273 364 C-273 363.01 -273 362.02 -273 361 C-251.55 361 -230.1 361 -208 361 C-208 305.56 -208 250.12 -208 193 C-139.36 193 -70.72 193 0 193 C0 129.31 0 65.62 0 0 Z " fill="#000000" transform="translate(455,138)"/>
<path d="M0 0 C10.56 0 21.12 0 32 0 C32 21.45 32 42.9 32 65 C28.04 65 24.08 65 20 65 C20 56.09 20 47.18 20 38 C17.36 38 14.72 38 12 38 C12 46.91 12 55.82 12 65 C8.04 65 4.08 65 0 65 C0 43.55 0 22.1 0 0 Z " fill="#64000F" transform="translate(260,344)"/>
<path d="M0 0 C10.56 0 21.12 0 32 0 C32 12.54 32 25.08 32 38 C25.4 38 18.8 38 12 38 C12 46.91 12 55.82 12 65 C8.04 65 4.08 65 0 65 C0 43.55 0 22.1 0 0 Z " fill="#64000F" transform="translate(416,344)"/>
<path d="M0 0 C10.56 0 21.12 0 32 0 C32 12.54 32 25.08 32 38 C25.4 38 18.8 38 12 38 C12 46.91 12 55.82 12 65 C8.04 65 4.08 65 0 65 C0 43.55 0 22.1 0 0 Z " fill="#64000F" transform="translate(299,344)"/>
<path d="M0 0 C10.56 0 21.12 0 32 0 C32 3.96 32 7.92 32 12 C25.4 12 18.8 12 12 12 C12 16.62 12 21.24 12 26 C18.6 26 25.2 26 32 26 C32 29.96 32 33.92 32 38 C25.4 38 18.8 38 12 38 C12 42.95 12 47.9 12 53 C18.6 53 25.2 53 32 53 C32 56.96 32 60.92 32 65 C21.44 65 10.88 65 0 65 C0 43.55 0 22.1 0 0 Z " fill="#64000F" transform="translate(377,344)"/>
<path d="M0 0 C10.56 0 21.12 0 32 0 C32 3.96 32 7.92 32 12 C25.4 12 18.8 12 12 12 C12 16.62 12 21.24 12 26 C18.6 26 25.2 26 32 26 C32 38.87 32 51.74 32 65 C21.44 65 10.88 65 0 65 C0 61.04 0 57.08 0 53 C6.6 53 13.2 53 20 53 C20 48.05 20 43.1 20 38 C13.4 38 6.8 38 0 38 C0 25.46 0 12.92 0 0 Z " fill="#64000F" transform="translate(338,344)"/>
<path d="M0 0 C47.19 0 94.38 0 143 0 C143 0.99 143 1.98 143 3 C96.8 3 50.6 3 3 3 C3 24.78 3 46.56 3 69 C2.01 69 1.02 69 0 69 C0 46.23 0 23.46 0 0 Z " fill="#000000" transform="translate(247,200)"/>
<path d="M0 0 C3.96 0 7.92 0 12 0 C12 7.92 12 15.84 12 24 C8.04 24 4.08 24 0 24 C0 16.08 0 8.16 0 0 Z " fill="#64000F" transform="translate(436,385)"/>
<path d="M0 0 C3.96 0 7.92 0 12 0 C12 7.92 12 15.84 12 24 C8.04 24 4.08 24 0 24 C0 16.08 0 8.16 0 0 Z " fill="#64000F" transform="translate(319,385)"/>
<path d="M0 0 C0.99 0 1.98 0 3 0 C3 12.54 3 25.08 3 38 C-3.6 38 -10.2 38 -17 38 C-17 46.91 -17 55.82 -17 65 C-20.96 65 -24.92 65 -29 65 C-29 64.01 -29 63.02 -29 62 C-26.03 62 -23.06 62 -20 62 C-20 53.09 -20 44.18 -20 35 C-13.4 35 -6.8 35 0 35 C0 23.45 0 11.9 0 0 Z " fill="#000000" transform="translate(445,344)"/>
<path d="M0 0 C0.99 0 1.98 0 3 0 C3 12.54 3 25.08 3 38 C-3.6 38 -10.2 38 -17 38 C-17 46.91 -17 55.82 -17 65 C-20.96 65 -24.92 65 -29 65 C-29 64.01 -29 63.02 -29 62 C-26.03 62 -23.06 62 -20 62 C-20 53.09 -20 44.18 -20 35 C-13.4 35 -6.8 35 0 35 C0 23.45 0 11.9 0 0 Z " fill="#000000" transform="translate(328,344)"/>
<path d="M0 0 C0.99 0 1.98 0 3 0 C3 21.45 3 42.9 3 65 C-0.96 65 -4.92 65 -9 65 C-9 64.01 -9 63.02 -9 62 C-6.03 62 -3.06 62 0 62 C0 41.54 0 21.08 0 0 Z " fill="#000000" transform="translate(289,344)"/>
<path d="M0 0 C0.99 0 1.98 0 3 0 C3 12.87 3 25.74 3 39 C-7.56 39 -18.12 39 -29 39 C-29 38.01 -29 37.02 -29 36 C-19.43 36 -9.86 36 0 36 C0 24.12 0 12.24 0 0 Z " fill="#000000" transform="translate(367,370)"/>
<path d="M0 0 C0.99 0 1.98 0 3 0 C3 3.96 3 7.92 3 12 C-3.6 12 -10.2 12 -17 12 C-17 16.95 -17 21.9 -17 27 C-17.99 27 -18.98 27 -20 27 C-20 21.06 -20 15.12 -20 9 C-13.4 9 -6.8 9 0 9 C0 6.03 0 3.06 0 0 Z " fill="#000000" transform="translate(406,370)"/>
<path d="M0 0 C3.63 0 7.26 0 11 0 C11 0.99 11 1.98 11 3 C8.36 3 5.72 3 3 3 C3 11.91 3 20.82 3 30 C-0.96 30 -4.92 30 -9 30 C-9 29.01 -9 28.02 -9 27 C-6.03 27 -3.06 27 0 27 C0 18.09 0 9.18 0 0 Z " fill="#000000" transform="translate(269,379)"/>
<path d="M0 0 C0.99 0 1.98 0 3 0 C3 3.96 3 7.92 3 12 C-3.6 12 -10.2 12 -17 12 C-17 16.62 -17 21.24 -17 26 C-17.99 26 -18.98 26 -20 26 C-20 20.39 -20 14.78 -20 9 C-13.4 9 -6.8 9 0 9 C0 6.03 0 3.06 0 0 Z " fill="#000000" transform="translate(406,344)"/>
<path d="M0 0 C0.99 0 1.98 0 3 0 C3 3.96 3 7.92 3 12 C-3.6 12 -10.2 12 -17 12 C-17 16.62 -17 21.24 -17 26 C-17.99 26 -18.98 26 -20 26 C-20 20.39 -20 14.78 -20 9 C-13.4 9 -6.8 9 0 9 C0 6.03 0 3.06 0 0 Z " fill="#000000" transform="translate(367,344)"/>
<path d="M0 0 C0.99 0 1.98 0 3 0 C3 3.96 3 7.92 3 12 C-7.56 12 -18.12 12 -29 12 C-29 11.01 -29 10.02 -29 9 C-19.43 9 -9.86 9 0 9 C0 6.03 0 3.06 0 0 Z " fill="#000000" transform="translate(406,397)"/>
<path d="M0 0 C2.64 0 5.28 0 8 0 C8 4.62 8 9.24 8 14 C5.36 14 2.72 14 0 14 C0 9.38 0 4.76 0 0 Z " fill="#FEFEFE" transform="translate(428,356)"/>
<path d="M0 0 C2.64 0 5.28 0 8 0 C8 4.62 8 9.24 8 14 C5.36 14 2.72 14 0 14 C0 9.38 0 4.76 0 0 Z " fill="#FEFEFE" transform="translate(311,356)"/>
<path d="M0 0 C2.64 0 5.28 0 8 0 C8 4.62 8 9.24 8 14 C5.36 14 2.72 14 0 14 C0 9.38 0 4.76 0 0 Z " fill="#FEFEFE" transform="translate(272,356)"/>
<path d="M0 0 C0.99 0 1.98 0 3 0 C3 7.92 3 15.84 3 24 C-0.96 24 -4.92 24 -9 24 C-9 23.01 -9 22.02 -9 21 C-6.03 21 -3.06 21 0 21 C0 14.07 0 7.14 0 0 Z " fill="#000000" transform="translate(445,385)"/>
<path d="M0 0 C0.99 0 1.98 0 3 0 C3 7.92 3 15.84 3 24 C-0.96 24 -4.92 24 -9 24 C-9 23.01 -9 22.02 -9 21 C-6.03 21 -3.06 21 0 21 C0 14.07 0 7.14 0 0 Z " fill="#000000" transform="translate(328,385)"/>
<path d="M0 0 C3.63 0 7.26 0 11 0 C11 0.99 11 1.98 11 3 C8.36 3 5.72 3 3 3 C3 7.62 3 12.24 3 17 C2.01 17 1.02 17 0 17 C0 11.39 0 5.78 0 0 Z " fill="#000000" transform="translate(425,353)"/>
<path d="M0 0 C3.63 0 7.26 0 11 0 C11 0.99 11 1.98 11 3 C8.36 3 5.72 3 3 3 C3 7.62 3 12.24 3 17 C2.01 17 1.02 17 0 17 C0 11.39 0 5.78 0 0 Z " fill="#000000" transform="translate(308,353)"/>
<path d="M0 0 C3.63 0 7.26 0 11 0 C11 0.99 11 1.98 11 3 C8.36 3 5.72 3 3 3 C3 7.62 3 12.24 3 17 C2.01 17 1.02 17 0 17 C0 11.39 0 5.78 0 0 Z " fill="#000000" transform="translate(269,353)"/>
<path d="M0 0 C6.6 0 13.2 0 20 0 C20 0.99 20 1.98 20 3 C13.4 3 6.8 3 0 3 C0 2.01 0 1.02 0 0 Z " fill="#000000" transform="translate(338,379)"/>
</svg>
